<?xml version="1.0" encoding="UTF-8" standalone="no"?>
<svg width="512px" height="512px" viewBox="0 0 512 512" version="1.1" xmlns="http://www.w3.org/2000/svg" xmlns:xlink="http://www.w3.org/1999/xlink">
    <!-- Generator: Sketch 43.1 (39012) - http://www.bohemiancoding.com/sketch -->
    <title>512x512</title>
    <desc>Created with Sketch.</desc>
    <defs></defs>
    <g id="Page-1" stroke="none" stroke-width="1" fill="none" fill-rule="evenodd">
        <g id="512x512" fill-rule="nonzero">
            <g id="bondlink" transform="translate(12.000000, 0.000000)">
                <path d="M464.162331,258.527277 C451.279227,234.088063 433.720275,212.188968 412.880601,195.834908 C410.11215,193.629865 407.169309,191.716667 404.313663,189.706188 C392.585897,181.426472 380.367657,174.562738 367.855132,168.715053 L327.516411,221.636061 C341.652948,228.305232 354.612348,236.249868 365.729747,245.69696 L368.705287,248.085755 C395.060063,271.811574 407.539889,302.487599 407.234706,338.643803 C407.169309,356.467891 404.488054,372.951662 398.26449,386.365666 C392.291613,399.876953 383.201504,410.426567 370.86337,418.51172 C346.143505,434.919826 308.082761,438.584087 271.79862,431.136667 C253.585704,427.548068 235.241995,421.700383 217.672144,413.593612 C200.298482,405.15176 183.197306,395.077745 168.090722,382.225809 C150.422776,367.676855 134.923813,349.712248 122.683774,329.31561 C117.844435,321.252075 113.550067,312.810223 109.866066,303.979247 C107.130314,297.407356 104.732443,290.716568 102.726952,283.852833 C102.290975,282.393614 101.822301,280.729024 101.331827,278.956342 C96.5360862,261.759178 94.1382157,243.91347 93.7349375,225.862391 L93.669541,223.884339 C93.5605469,217.86371 93.6913398,211.799845 94.0074227,205.746787 L94.0183222,205.476561 L94.0183222,205.390089 L94.6395886,205.217146 C94.6395886,205.217146 97.353542,180.053725 99.5443237,168.239456 L98.7159684,168.5313 C95.8385238,169.612202 93.0482745,170.876859 90.2144276,172.055043 C87.5549712,184.258438 85.4513848,196.548303 83.8273726,208.913833 C80.6992415,233.580037 79.8490874,258.656986 82.1924609,284.058204 C82.8791238,290.835466 83.8709702,297.526255 85.0699055,304.281898 C86.4541307,312.280579 88.2743324,320.192789 90.410617,328.137427 C98.6832702,358.791833 112.38383,388.657182 132.776629,414.858268 C162.684614,453.511356 205.301312,483.517222 254.283266,498.80119 C445.273651,558.391367 535.455381,393.640143 464.162331,258.527277" id="Fill-3" fill="#0064B1"></path>
                <path d="M311.843058,212.778231 C327.995985,196.146939 339.505764,178.318367 345.653032,159.412245 C321.99041,151.042177 297.608426,146.231293 273.695118,143.836735 C225.8794,139.134694 178.499659,144.772789 133.343398,156.908844 C121.604732,160.185034 110.094954,164.005442 98.7159684,168.533333 C95.8385238,169.621769 93.0482745,170.895238 90.2144276,172.081633 C87.5549712,184.370068 85.4513848,196.745578 83.8273726,209.197279 L83.7837749,209.621769 C83.7837749,209.621769 89.3751729,207.161905 94.0183222,205.703401 L94.0183222,205.64898 C109.331995,200.870748 125.299633,197.768707 141.289069,195.635374 C182.92482,190.410884 225.399826,193.317007 265.13908,201.469388 C280.572647,204.734694 295.711929,209.077551 310.055554,214.519728 L311.843058,212.778231" id="Fill-23" fill="#009B3F"></path>
                <path d="M373.402933,253.115646 C371.887915,251.602721 370.329299,250.10068 368.705287,248.642177 L365.729747,246.236735 C361.642468,242.731973 357.304502,239.444898 352.748548,236.342857 L392.912879,182.356463 C396.673176,184.718367 400.444372,187.12381 404.128373,189.72517 C404.18287,189.768707 404.248267,189.812245 404.313663,189.855782 C407.169309,191.880272 410.11215,193.806803 412.880601,196.027211 C414.995086,197.703401 416.946081,199.640816 419.027869,201.447619 C405.523498,226.601361 383.626581,245.289796 373.402933,253.115646" id="Fill-6" fill="#2C5285"></path>
                <path d="M414.406518,114.536054 C413.992341,111.07483 413.436471,107.885714 412.771607,104.293878 L411.659867,99.0802721 L410.67892,95.0421769 C408.62983,87.1619048 406.580741,80.9251701 403.507107,74.1006803 C397.447034,60.8653061 389.207079,48.4680272 378.928934,38.3891156 C358.525236,17.7959184 332.028767,6.91156463 306.742133,2.39455782 C255.340509,-5.84489796 206.118768,10.644898 168.657491,38.2802721 C131.000025,66.4272109 106.312858,107.417687 95.2390562,150.715646 L95.1954586,150.82449 C93.3861563,157.866667 91.707647,164.941497 90.2144276,172.081633 C93.0482745,170.895238 95.8385238,169.621769 98.7159684,168.533333 C99.7514125,163.178231 100.90675,157.910204 102.290975,152.631293 C112.503724,110.345578 140.53701,72.5115646 178.499659,53.8013605 C215.69935,34.2421769 260.539528,32.8380952 295.265053,46.6612245 C312.693212,53.1918367 326.764352,64.3047619 336.007053,76.7673469 C340.552107,83.1238095 344.050818,89.8176871 346.328795,97.0666667 C347.287943,100.484354 348.421482,104.84898 348.911956,107.733333 L349.56592,111.814966 L349.914701,114.77551 C350.143589,116.658503 350.31798,118.955102 350.426974,121.001361 C351.484217,134.291156 349.740311,147.080272 345.653032,159.412245 C339.505764,178.318367 327.995985,196.146939 311.843058,212.778231 L310.055554,214.519728 C283.809772,241.131973 248.626472,263.216327 210.849112,279.49932 C179.055529,292.919728 144.537094,302.65034 109.866066,304.92517 C102.334573,305.414966 94.835778,305.67619 87.2715865,305.371429 L85.0699055,305.229932 C65.2329768,304.119728 44.3170065,299.787755 31.8044823,288.50068 C25.4610249,282.731973 22.5835803,275.787755 22.9323614,267.602721 C22.9977579,265.469388 23.2484444,263.706122 23.7825155,261.159184 C24.1639949,259.417687 24.8179596,257.012245 25.6136166,255.031293 C27.2485283,250.993197 29.5701029,247.063946 32.3167546,243.406803 C43.5758465,228.54966 61.6252717,217.708844 80.6992415,210.329252 C81.7237862,209.904762 82.8791238,209.610884 83.8273726,209.197279 C85.4513848,196.745578 87.5549712,184.370068 90.2144276,172.081633 C82.6066385,175.292517 75.1187429,178.786395 67.7616403,182.628571 C57.2655071,188.223129 47.1508534,194.69932 37.6138685,202.318367 C28.0986824,209.795918 19.0957687,218.688435 12.109246,229.55102 C8.64323319,234.971429 5.70039213,240.881633 3.60770515,247.259864 C2.52866343,250.459864 1.70030817,253.376871 1.04634349,257.164626 C0.512272333,259.972789 0.0435976453,263.662585 0.0435976453,267.069388 C-0.599467623,281.077551 6.48514974,296.25034 16.9485846,304.92517 C27.3684219,313.752381 39.0743896,318.813605 50.6277656,322.296599 C62.2901358,325.616327 73.87621,327.82585 85.4731837,328.892517 C87.151693,329.09932 88.7757053,329.164626 90.410617,329.251701 C101.201034,330.10068 111.947854,330.590476 122.683774,330.438095 C156.526446,330.285714 190.16203,325.801361 223.416133,318.193197 C268.670489,307.395918 313.968443,289.980952 353.184525,257.708844 C357.489792,254.095238 361.664267,250.209524 365.729747,246.236735 C379.986177,232.07619 392.673092,215.32517 401.763201,195.831293 C402.624255,193.893878 403.485308,191.858503 404.313663,189.855782 C414.057737,166.280272 417.643643,139.537415 414.406518,114.536054" id="Fill-8" fill="#3B4D52"></path>
                <path d="M31.8044823,288.50068 C27.9133924,283.548299 25.570019,276.930612 25.8643031,270.530612 C25.9079007,268.364626 26.2021848,266.601361 26.6817589,264.032653 C27.0523389,262.32381 27.7281024,259.929252 28.51286,257.948299 C30.1913694,253.888435 32.3930505,249.937415 35.2595957,246.32381 C43.9464265,235.014966 60.1211529,220.636735 87.3914801,207.880272 C88.8738,196.832653 89.80025,182.138776 92.1109252,171.297959 C86.4868289,173.681633 33.5483881,200.468027 19.2701592,240.555102 C8.02196674,272.108844 30.7799376,288.968707 31.8044823,288.50068" id="Fill-13" fill="#009B3F"></path>
                <path d="M384.215149,118.791837 C383.877267,115.646259 383.397693,112.816327 382.754628,109.627211 L381.773681,104.92517 L380.847231,101.355102 C379.059727,94.3020408 377.228626,88.7292517 374.427478,82.5904762 C368.999571,70.7265306 361.664267,59.5809524 352.410667,50.6122449 C334.110555,32.185034 310.426134,22.4 287.744459,18.3836735 C241.727145,10.9931973 197.704422,25.785034 164.177833,50.5034014 C130.433255,75.7006803 108.329249,112.413605 98.4543826,151.183673 L98.4107849,151.270748 C96.7322756,157.583673 95.2390562,163.918367 93.8984286,170.296599 C95.5115415,169.621769 97.1464532,168.979592 98.7595661,168.261224 C99.7950102,163.02585 100.90675,157.801361 102.290975,152.631293 C112.503724,110.345578 140.53701,72.5115646 178.499659,53.8013605 C215.69935,34.2421769 260.539528,32.8380952 295.265053,46.6612245 C312.693212,53.1918367 326.764352,64.3047619 336.007053,76.7673469 C340.552107,83.1238095 344.050818,89.8176871 346.328795,97.0666667 C347.287943,100.484354 348.421482,104.84898 348.911956,107.733333 L349.56592,111.814966 L349.914701,114.77551 C350.143589,116.658503 350.31798,118.955102 350.426974,121.001361 C351.484217,134.291156 349.740311,147.080272 345.653032,159.412245 C339.505764,178.318367 327.995985,196.146939 311.843058,212.778231 L310.055554,214.519728 C283.809772,241.131973 248.626472,263.216327 210.849112,279.49932 C179.055529,292.919728 144.537094,302.65034 109.866066,304.92517 C102.334573,305.414966 94.835778,305.67619 87.2715865,305.371429 L85.0699055,305.229932 C68.1867173,304.293878 50.7258603,300.97415 38.1479397,293.148299 C37.2105903,293.572789 50.6604639,302.508844 58.453543,304.827211 C68.8842796,307.798639 79.282318,309.757823 89.7021553,310.737415 C91.1408776,310.922449 92.6340969,310.922449 94.0510204,311.07483 C103.762396,311.814966 113.397476,312.195918 122.978058,312.130612 C153.256623,311.989116 183.382596,307.994558 213.170687,301.170068 C253.683799,291.472109 294.284106,275.863946 329.456506,246.955102 C333.2822,243.787755 336.966201,240.261224 340.552107,236.691156 C353.413412,224.043537 364.705203,209.055782 372.836163,191.597279 C373.686318,189.834014 374.416578,188.027211 375.135939,186.242177 C383.920865,165.137415 387.147091,141.191837 384.215149,118.791837" id="Fill-14" fill="#3B4D52"></path>
                <path d="M460.719633,377.012944 L423.142636,395.500352 L411.563102,401.200967 L411.563102,377.903665 C411.539162,370.219779 405.307469,363.996696 397.612954,363.972789 L283.280411,363.972789 C275.586794,363.998855 269.356365,370.220678 269.330263,377.903665 L269.330263,480.039668 C269.356365,487.722656 275.586794,493.944478 283.280411,493.970544 L397.620882,493.970544 C405.315398,493.946637 411.54709,487.723554 411.57103,480.039668 L411.57103,456.742367 L423.142636,462.442981 L460.707741,480.930389 C467.090161,484.065727 472.299168,480.83142 472.299168,473.737323 L472.299168,384.206011 C472.299168,377.111913 467.090161,373.877606 460.719633,377.012944 Z" id="Shape" fill="#009B3F"></path>
            </g>
        </g>
    </g>
</svg>